<svg width="65" height="65" viewBox="0 0 65 65" xmlns="http://www.w3.org/2000/svg"><path d="M32.5 5.417c14.934 0 27.083 12.15 27.083 27.083 0 14.934-12.15 27.083-27.083 27.083-14.934 0-27.083-12.15-27.083-27.083 0-14.934 12.15-27.083 27.083-27.083zM32.5 0C14.552 0 0 14.552 0 32.5S14.552 65 32.5 65 65 50.448 65 32.5 50.448 0 32.5 0zm13.542 42.082l-9.729-9.61 9.604-9.714-3.835-3.8-9.601 9.72-9.717-9.595-3.806 3.805 9.731 9.62-9.606 9.728 3.805 3.806 9.628-9.74 9.726 9.615 3.8-3.835z" fill="#FFF"/></svg>