<svg width="188" height="102" viewBox="0 0 188 102" xmlns="http://www.w3.org/2000/svg" class="symbol"><g fill="#FEFEFE" fill-rule="evenodd"><path d="M2.572 91.841H0v10.065h4.575l89.5-37.069 89.507 37.07h4.413V91.84h-2.411L94.076 53.943z" class="symbol__shape"/><path d="M174.908 76.528V65.63L94.076 32.152 13.255 65.627v10.898l80.82-33.473zm-54.82-44.511l12.418-5.144 22.639 9.377v10.287l10.064 4.168V29.526L132.506 15.98l-25.57 10.591zM33.005 36.25l22.64-9.376 12.418 5.144 13.151-5.448-25.569-10.59-32.704 13.546v21.18l10.064-4.17zM94.075 0L68.48 10.6l13.15 5.448 12.445-5.153 12.444 5.153 13.153-5.448z" class="symbol__shape"/></g></svg>