<svg width="32" height="32" viewBox="0 0 32 32" xmlns="http://www.w3.org/2000/svg"><path d="M16 0C7.164 0 0 7.164 0 16s7.164 16 16 16 16-7.164 16-16S24.836 0 16 0zm-.283 15.381c.364-1.049-.281-1.514-2.32.279l-.453-.853c2.325-2.53 7.113-3.102 5.484.817-1.017 2.447-1.745 4.099-2.161 5.373-.607 1.858.925 1.104 2.425-.281.204.333.27.441.475.825-3.331 3.171-7.028 3.451-5.878-.194.752-2.386 2.176-5.243 2.428-5.966zm3.895-4.926c-.71.604-1.76.59-2.348-.03-.588-.62-.49-1.61.219-2.214.709-.604 1.76-.59 2.348.029.585.621.489 1.612-.219 2.215z"/></svg>