<svg viewBox="0 0 137 57" xmlns="http://www.w3.org/2000/svg"><path d="M12.757 49.154H7.326V33.84h5.43c4.224 0 7.672 3.44 7.672 7.656 0 4.215-3.448 7.657-7.671 7.657m0-22.669H0v29.981h12.757c8.274 0 14.997-6.71 14.997-14.969 0-8.258-6.723-15.012-14.997-15.012m26.468 29.982h23.573v-7.312H46.551v-4h12.713V37.84H46.551v-4h16.247v-7.356H39.225zm49.348-23.012c2.327 0 4.568 1.032 6.119 2.838l5.56-4.773c-2.93-3.4-7.197-5.378-11.68-5.378-8.49 0-15.384 6.883-15.384 15.356 0 8.474 6.895 15.356 15.385 15.356 4.18 0 8.102-1.677 11.032-4.688l-5.257-5.076c-1.552 1.549-3.578 2.41-5.775 2.41-4.44 0-8.06-3.57-8.06-8.002 0-4.43 3.62-8.043 8.06-8.043m36.709 5.333l10.429-12.345h-9.61l-7.845 9.248v-9.119h-7.326v29.981h7.326v-9.549l2.07-2.409 7.843 11.958h8.748zM48.321 15.034h3.663V3.657h4.741V0H43.58v3.657h4.741zm26.871 0V.042H71.53v5.636h-5.753V.042h-3.664v14.992h3.664v-5.7h5.753v5.7zm18.146-3.699h-8.125v-2h6.357V5.678h-6.357v-2h8.125V0H81.549v14.992h11.789z" fill="#FFF" fill-rule="evenodd"/></svg>